# xmcd CD database file
# Generated: Wed Jan 23 13:36:16 2002 by KSCD
# 
# Track frame offsets:
#       183
#       11393
#       23838
#       35338
#       47805
#       58900
#       69945
#       80973
#       93405
#       104545
#       115670
#       125505
#       139415
#       150745
#       163460
#       176238
#       187670
#       202030
#       212898
#       222235
#
# Disc length: 3149 seconds
#
# Revision: 3
# Processed by: cddbd v1.4PL0 Copyright (c) Steve Scherf et al.
# Submitted via: Kscd 1.3.0
#
DISCID=290c4b14
DTITLE=Bo Diddley - I'm A Man, Volume 1
DYEAR=1900
DGENRE=
TTITLE0=Bo Diddley
TTITLE1=I'm A Man
TTITLE2=Little Girl
TTITLE3=You Don't Love Me (You Don't Care)
TTITLE4=The Great Grandfather
TTITLE5=Diddley Daddy
TTITLE6=Bring It To Jerome
TTITLE7=Pretty Thing
TTITLE8=Diddley Wah Diddley
TTITLE9=Who Do You Love?
TTITLE10=Hey Bo Doddley
TTITLE11=Before You Accuse Me
TTITLE12=Say Bossman
TTITLE13=Dearest Darling
TTITLE14=Hush Your Mouth
TTITLE15=Bo's Guitar
TTITLE16=Say Man
TTITLE17=I'm Sorry
TTITLE18=Crackin' Up
TTITLE19=Oh Yeah
EXTD=
EXTT0=
EXTT1=
EXTT2=
EXTT3=
EXTT4=
EXTT5=
EXTT6=
EXTT7=
EXTT8=
EXTT9=
EXTT10=
EXTT11=
EXTT12=
EXTT13=
EXTT14=
EXTT15=
EXTT16=
EXTT17=
EXTT18=
EXTT19=
PLAYORDER=
